# xmcd CD database file
#
# Track frame offsets:
#	150
#	18151
#	37771
#	50136
#	66515
#	82115
#	99816
#	117061
#	134888
#	157479
#	173126
#
# Disc length: 2491 seconds
#
# Revision: 1
# Processed by: cddbd v1.5.2PL0 Copyright (c) Steve Scherf et al.
# Submitted via: CDex 1.79
#
DISCID=9709b90b
DTITLE=Rodney Hayden - Down The Road
DYEAR=2007
DGENRE=Country
TTITLE0=Down The Road
TTITLE1=It Goes By To Fast
TTITLE2=Whoever Wrote This Song
TTITLE3=Nuevo Laredo
TTITLE4=Lonely Day
TTITLE5=I'll Ride Again
TTITLE6=Midnight In Memphis
TTITLE7=After The Sun Goes Down
TTITLE8=Silverado Boys
TTITLE9=These Arms (featuring Sunny Sweeney)
TTITLE10=It's Been A While
EXTD=YEAR: 2007
EXTT0=
EXTT1=
EXTT2=
EXTT3=
EXTT4=
EXTT5=
EXTT6=
EXTT7=
EXTT8=
EXTT9=
EXTT10=
PLAYORDER=
